G04 #@! TF.GenerationSoftware,KiCad,Pcbnew,(5.1.5)-3*
G04 #@! TF.CreationDate,2020-03-17T07:33:31+09:00*
G04 #@! TF.ProjectId,fan,66616e2e-6b69-4636-9164-5f7063625858,v1.0*
G04 #@! TF.SameCoordinates,Original*
G04 #@! TF.FileFunction,Other,ECO2*
%FSLAX46Y46*%
G04 Gerber Fmt 4.6, Leading zero omitted, Abs format (unit mm)*
G04 Created by KiCad (PCBNEW (5.1.5)-3) date 2020-03-17 07:33:31*
%MOMM*%
%LPD*%
G04 APERTURE LIST*
%ADD10C,0.001000*%
G04 APERTURE END LIST*
D10*
X205459917Y-41457421D02*
G75*
G02X213350188Y-120808319I-380205917J-77873578D01*
G01*
X5162536Y-118742786D02*
G75*
G02X616240Y-87556197I142917464J36758786D01*
G01*
X112752633Y-1218701D02*
G75*
G02X186967854Y-13361602I3049367J-214229299D01*
G01*
X188668710Y-14001812D02*
G75*
G02X203653791Y-32688130I-8704710J-22332188D01*
G01*
X186966000Y-13361100D02*
X188669000Y-14001900D01*
X210811000Y-139864000D02*
X210560000Y-140144000D01*
X33473278Y-132346119D02*
G75*
G02X187958430Y-140061172I72076722J-107297881D01*
G01*
X205460000Y-41457300D02*
X203654000Y-32688200D01*
X30502159Y-134093957D02*
G75*
G02X6228978Y-122552857I-7315160J15910957D01*
G01*
X616240Y-87556235D02*
G75*
G02X4480852Y-47985432I147464760J5572235D01*
G01*
X6229000Y-122553000D02*
X5162500Y-118743000D01*
X13552062Y-32555207D02*
G75*
G02X36081093Y-17284410I53855938J-55199793D01*
G01*
X13552000Y-32555000D02*
X12681000Y-33384400D01*
X33473300Y-132346000D02*
X30502200Y-134094000D01*
X187958000Y-140061000D02*
X189905000Y-141474000D01*
X4862000Y-46479100D02*
X4481000Y-47984400D01*
X4861710Y-46478992D02*
G75*
G02X12680944Y-33384460I27359290J-7455408D01*
G01*
X42972920Y-14147438D02*
G75*
G02X100095793Y-1722399I68974080J-179580562D01*
G01*
X42973000Y-14148100D02*
X36081000Y-17284400D01*
X104082000Y-1517900D02*
X100095000Y-1723100D01*
X104082102Y-1517870D02*
G75*
G02X112752494Y-1218729I11721898J-213949130D01*
G01*
X213154840Y-132704000D02*
G75*
G02X210810713Y-139864843I-11791840J-104000D01*
G01*
X213350188Y-120808319D02*
G75*
G02X213180994Y-130884386I-388096188J1477320D01*
G01*
X213181000Y-130884000D02*
X213155000Y-132704000D01*
X210556448Y-140147868D02*
G75*
G02X195897960Y-144398979I-11057448J10729868D01*
G01*
X195897960Y-144398979D02*
G75*
G02X189904114Y-141473512I3601040J14980979D01*
G01*
X210557000Y-140148000D02*
X210560000Y-140144000D01*
X166029000Y-27489000D02*
G75*
G03X166029000Y-27489000I-1100000J0D01*
G01*
X143128329Y-108569541D02*
G75*
G03X143128329Y-108569541I-1100000J0D01*
G01*
X6102000Y-88685000D02*
G75*
G03X6102000Y-88685000I-1100000J0D01*
G01*
X66825692Y-12299696D02*
G75*
G03X66825692Y-12299696I-1100000J0D01*
G01*
X128202649Y-5645937D02*
G75*
G03X128202649Y-5645937I-1100000J0D01*
G01*
X10902000Y-50085000D02*
G75*
G03X10902000Y-50085000I-1100000J0D01*
G01*
X73728327Y-109869542D02*
G75*
G03X73728327Y-109869542I-1100000J0D01*
G01*
X16246651Y-128287934D02*
G75*
G03X16246651Y-128287934I-1100000J0D01*
G01*
X129752649Y-45695934D02*
G75*
G03X129752649Y-45695934I-1100000J0D01*
G01*
X67052649Y-53995933D02*
G75*
G03X67052649Y-53995933I-1100000J0D01*
G01*
X204253649Y-139709608D02*
G75*
G03X204253649Y-139709608I-1100000J0D01*
G01*
X202502000Y-63485000D02*
G75*
G03X202502000Y-63485000I-1100000J0D01*
G01*
M02*
